<mxfile host="app.diagrams.net" modified="2023-08-22T07:29:15.101Z" agent="Mozilla/5.0 (Macintosh; Intel Mac OS X 10_15_7) AppleWebKit/537.36 (KHTML, like Gecko) Chrome/115.0.0.0 Safari/537.36" etag="dmaSHaJjZBBmEJuKSA6e" version="21.6.8" type="device">
  <diagram id="C5RBs43oDa-KdzZeNtuy" name="Page-1">
    <mxGraphModel dx="1285" dy="797" grid="1" gridSize="10" guides="1" tooltips="1" connect="1" arrows="1" fold="1" page="1" pageScale="1" pageWidth="827" pageHeight="1169" math="0" shadow="0">
      <root>
        <mxCell id="WIyWlLk6GJQsqaUBKTNV-0" />
        <mxCell id="WIyWlLk6GJQsqaUBKTNV-1" parent="WIyWlLk6GJQsqaUBKTNV-0" />
        <mxCell id="k9FDcNAPijfB3AnwBuzB-10" value="" style="edgeStyle=orthogonalEdgeStyle;rounded=0;orthogonalLoop=1;jettySize=auto;html=1;" edge="1" parent="WIyWlLk6GJQsqaUBKTNV-1" source="k9FDcNAPijfB3AnwBuzB-0" target="k9FDcNAPijfB3AnwBuzB-1">
          <mxGeometry relative="1" as="geometry" />
        </mxCell>
        <mxCell id="k9FDcNAPijfB3AnwBuzB-0" value="1フレームの&lt;br&gt;医者.手，医者.膝の座標を取得" style="rounded=0;whiteSpace=wrap;html=1;" vertex="1" parent="WIyWlLk6GJQsqaUBKTNV-1">
          <mxGeometry x="180" y="190" width="190" height="40" as="geometry" />
        </mxCell>
        <mxCell id="k9FDcNAPijfB3AnwBuzB-3" value="" style="edgeStyle=orthogonalEdgeStyle;rounded=0;orthogonalLoop=1;jettySize=auto;html=1;" edge="1" parent="WIyWlLk6GJQsqaUBKTNV-1" source="k9FDcNAPijfB3AnwBuzB-1" target="k9FDcNAPijfB3AnwBuzB-2">
          <mxGeometry relative="1" as="geometry" />
        </mxCell>
        <mxCell id="k9FDcNAPijfB3AnwBuzB-11" style="edgeStyle=orthogonalEdgeStyle;rounded=0;orthogonalLoop=1;jettySize=auto;html=1;entryX=1;entryY=0.5;entryDx=0;entryDy=0;exitX=1;exitY=0.5;exitDx=0;exitDy=0;" edge="1" parent="WIyWlLk6GJQsqaUBKTNV-1" source="k9FDcNAPijfB3AnwBuzB-1" target="k9FDcNAPijfB3AnwBuzB-0">
          <mxGeometry relative="1" as="geometry">
            <Array as="points">
              <mxPoint x="420" y="305" />
              <mxPoint x="420" y="210" />
            </Array>
          </mxGeometry>
        </mxCell>
        <mxCell id="k9FDcNAPijfB3AnwBuzB-1" value="医者.手と医者.膝の&lt;br&gt;距離が閾値以下か？" style="rhombus;whiteSpace=wrap;html=1;" vertex="1" parent="WIyWlLk6GJQsqaUBKTNV-1">
          <mxGeometry x="170" y="270" width="210" height="70" as="geometry" />
        </mxCell>
        <mxCell id="k9FDcNAPijfB3AnwBuzB-7" value="" style="edgeStyle=orthogonalEdgeStyle;rounded=0;orthogonalLoop=1;jettySize=auto;html=1;" edge="1" parent="WIyWlLk6GJQsqaUBKTNV-1" source="k9FDcNAPijfB3AnwBuzB-2" target="k9FDcNAPijfB3AnwBuzB-6">
          <mxGeometry relative="1" as="geometry" />
        </mxCell>
        <mxCell id="k9FDcNAPijfB3AnwBuzB-2" value="カウントする&lt;br&gt;フレーム番号を記録しておく" style="whiteSpace=wrap;html=1;" vertex="1" parent="WIyWlLk6GJQsqaUBKTNV-1">
          <mxGeometry x="180" y="380" width="190" height="40" as="geometry" />
        </mxCell>
        <mxCell id="k9FDcNAPijfB3AnwBuzB-9" value="" style="edgeStyle=orthogonalEdgeStyle;rounded=0;orthogonalLoop=1;jettySize=auto;html=1;" edge="1" parent="WIyWlLk6GJQsqaUBKTNV-1" source="k9FDcNAPijfB3AnwBuzB-6" target="k9FDcNAPijfB3AnwBuzB-8">
          <mxGeometry relative="1" as="geometry" />
        </mxCell>
        <mxCell id="k9FDcNAPijfB3AnwBuzB-6" value="カウントが2秒以上" style="rhombus;whiteSpace=wrap;html=1;" vertex="1" parent="WIyWlLk6GJQsqaUBKTNV-1">
          <mxGeometry x="180" y="460" width="190" height="60" as="geometry" />
        </mxCell>
        <mxCell id="k9FDcNAPijfB3AnwBuzB-8" value="" style="whiteSpace=wrap;html=1;" vertex="1" parent="WIyWlLk6GJQsqaUBKTNV-1">
          <mxGeometry x="215" y="565" width="120" height="40" as="geometry" />
        </mxCell>
      </root>
    </mxGraphModel>
  </diagram>
</mxfile>
